<?xml version="1.0" encoding="UTF-8" standalone="no"?>
<!DOCTYPE svg PUBLIC "-//W3C//DTD SVG 1.1//EN"
 "http://www.w3.org/Graphics/SVG/1.1/DTD/svg11.dtd">
<!-- Generated by graphviz version 8.1.0 (20230707.0739)
 -->
<!-- Title: G Pages: 1 -->
<svg width="170pt" height="260pt"
 viewBox="0.00 0.00 170.00 260.00" xmlns="http://www.w3.org/2000/svg" xmlns:xlink="http://www.w3.org/1999/xlink">
<g id="graph0" class="graph" transform="scale(1 1) rotate(0) translate(4 256)">
<title>G</title>
<polygon fill="white" stroke="none" points="-4,4 -4,-256 166,-256 166,4 -4,4"/>
<!-- n0 -->
<g id="node1" class="node">
<title>n0</title>
<polygon fill="none" stroke="black" points="126,-252 72,-252 72,-216 126,-216 126,-252"/>
<text text-anchor="middle" x="99" y="-228.95" font-family="Times,serif" font-size="14.00">Or</text>
</g>
<!-- n1 -->
<g id="node2" class="node">
<title>n1</title>
<polygon fill="none" stroke="black" points="90,-180 36,-180 36,-144 90,-144 90,-180"/>
<text text-anchor="middle" x="63" y="-156.95" font-family="Times,serif" font-size="14.00">And</text>
</g>
<!-- n0&#45;&gt;n1 -->
<g id="edge1" class="edge">
<title>n0&#45;&gt;n1</title>
<path fill="none" stroke="black" d="M90.1,-215.7C86.09,-207.9 81.26,-198.51 76.8,-189.83"/>
<polygon fill="black" stroke="black" points="79.48,-188.4 71.8,-181.1 73.26,-191.6 79.48,-188.4"/>
</g>
<!-- n5 -->
<g id="node6" class="node">
<title>n5</title>
<polygon fill="none" stroke="black" points="162,-180 108,-180 108,-144 162,-144 162,-180"/>
<text text-anchor="middle" x="135" y="-156.95" font-family="Times,serif" font-size="14.00">a</text>
</g>
<!-- n0&#45;&gt;n5 -->
<g id="edge5" class="edge">
<title>n0&#45;&gt;n5</title>
<path fill="none" stroke="black" d="M107.9,-215.7C111.91,-207.9 116.74,-198.51 121.2,-189.83"/>
<polygon fill="black" stroke="black" points="124.74,-191.6 126.2,-181.1 118.52,-188.4 124.74,-191.6"/>
</g>
<!-- n2 -->
<g id="node3" class="node">
<title>n2</title>
<polygon fill="none" stroke="black" points="54,-108 0,-108 0,-72 54,-72 54,-108"/>
<text text-anchor="middle" x="27" y="-84.95" font-family="Times,serif" font-size="14.00">b</text>
</g>
<!-- n1&#45;&gt;n2 -->
<g id="edge2" class="edge">
<title>n1&#45;&gt;n2</title>
<path fill="none" stroke="black" d="M54.1,-143.7C50.09,-135.9 45.26,-126.51 40.8,-117.83"/>
<polygon fill="black" stroke="black" points="43.48,-116.4 35.8,-109.1 37.26,-119.6 43.48,-116.4"/>
</g>
<!-- n3 -->
<g id="node4" class="node">
<title>n3</title>
<polygon fill="none" stroke="black" points="126,-108 72,-108 72,-72 126,-72 126,-108"/>
<text text-anchor="middle" x="99" y="-84.95" font-family="Times,serif" font-size="14.00">Not</text>
</g>
<!-- n1&#45;&gt;n3 -->
<g id="edge3" class="edge">
<title>n1&#45;&gt;n3</title>
<path fill="none" stroke="black" d="M71.9,-143.7C75.91,-135.9 80.74,-126.51 85.2,-117.83"/>
<polygon fill="black" stroke="black" points="88.74,-119.6 90.2,-109.1 82.52,-116.4 88.74,-119.6"/>
</g>
<!-- n4 -->
<g id="node5" class="node">
<title>n4</title>
<polygon fill="none" stroke="black" points="126,-36 72,-36 72,0 126,0 126,-36"/>
<text text-anchor="middle" x="99" y="-12.95" font-family="Times,serif" font-size="14.00">a</text>
</g>
<!-- n3&#45;&gt;n4 -->
<g id="edge4" class="edge">
<title>n3&#45;&gt;n4</title>
<path fill="none" stroke="black" d="M99,-71.7C99,-64.24 99,-55.32 99,-46.97"/>
<polygon fill="black" stroke="black" points="102.5,-47.1 99,-37.1 95.5,-47.1 102.5,-47.1"/>
</g>
</g>
</svg>
