<?xml version="1.0" encoding="UTF-8" standalone="no"?>
<!DOCTYPE svg PUBLIC "-//W3C//DTD SVG 1.1//EN"
 "http://www.w3.org/Graphics/SVG/1.1/DTD/svg11.dtd">
<!-- Generated by graphviz version 8.1.0 (20230707.0739)
 -->
<!-- Title: G Pages: 1 -->
<svg width="278pt" height="260pt"
 viewBox="0.00 0.00 278.00 260.00" xmlns="http://www.w3.org/2000/svg" xmlns:xlink="http://www.w3.org/1999/xlink">
<g id="graph0" class="graph" transform="scale(1 1) rotate(0) translate(4 256)">
<title>G</title>
<polygon fill="white" stroke="none" points="-4,4 -4,-256 274,-256 274,4 -4,4"/>
<!-- n0 -->
<g id="node1" class="node">
<title>n0</title>
<polygon fill="none" stroke="black" points="198,-252 144,-252 144,-216 198,-216 198,-252"/>
<text text-anchor="middle" x="171" y="-228.95" font-family="Times,serif" font-size="14.00">If</text>
</g>
<!-- n1 -->
<g id="node2" class="node">
<title>n1</title>
<polygon fill="none" stroke="black" points="126,-180 72,-180 72,-144 126,-144 126,-180"/>
<text text-anchor="middle" x="99" y="-156.95" font-family="Times,serif" font-size="14.00">If</text>
</g>
<!-- n0&#45;&gt;n1 -->
<g id="edge1" class="edge">
<title>n0&#45;&gt;n1</title>
<path fill="none" stroke="black" d="M153.2,-215.7C144.55,-207.28 133.99,-197.02 124.5,-187.79"/>
<polygon fill="black" stroke="black" points="127.45,-185.81 117.84,-181.35 122.57,-190.83 127.45,-185.81"/>
</g>
<!-- n8 -->
<g id="node9" class="node">
<title>n8</title>
<polygon fill="none" stroke="purple" points="198,-180 144,-180 144,-144 198,-144 198,-180"/>
<text text-anchor="middle" x="171" y="-156.95" font-family="Times,serif" font-size="14.00">1</text>
</g>
<!-- n0&#45;&gt;n8 -->
<g id="edge8" class="edge">
<title>n0&#45;&gt;n8</title>
<path fill="none" stroke="black" d="M171,-215.7C171,-208.24 171,-199.32 171,-190.97"/>
<polygon fill="black" stroke="black" points="174.5,-191.1 171,-181.1 167.5,-191.1 174.5,-191.1"/>
</g>
<!-- n9 -->
<g id="node10" class="node">
<title>n9</title>
<polygon fill="none" stroke="purple" points="270,-180 216,-180 216,-144 270,-144 270,-180"/>
<text text-anchor="middle" x="243" y="-156.95" font-family="Times,serif" font-size="14.00">a</text>
</g>
<!-- n0&#45;&gt;n9 -->
<g id="edge9" class="edge">
<title>n0&#45;&gt;n9</title>
<path fill="none" stroke="black" d="M188.8,-215.7C197.45,-207.28 208.01,-197.02 217.5,-187.79"/>
<polygon fill="black" stroke="black" points="219.43,-190.83 224.16,-181.35 214.55,-185.81 219.43,-190.83"/>
</g>
<!-- n2 -->
<g id="node3" class="node">
<title>n2</title>
<polygon fill="none" stroke="black" points="54,-108 0,-108 0,-72 54,-72 54,-108"/>
<text text-anchor="middle" x="27" y="-84.95" font-family="Times,serif" font-size="14.00">b</text>
</g>
<!-- n1&#45;&gt;n2 -->
<g id="edge2" class="edge">
<title>n1&#45;&gt;n2</title>
<path fill="none" stroke="black" d="M81.2,-143.7C72.55,-135.28 61.99,-125.02 52.5,-115.79"/>
<polygon fill="black" stroke="black" points="55.45,-113.81 45.84,-109.35 50.57,-118.83 55.45,-113.81"/>
</g>
<!-- n3 -->
<g id="node4" class="node">
<title>n3</title>
<polygon fill="none" stroke="black" points="126,-108 72,-108 72,-72 126,-72 126,-108"/>
<text text-anchor="middle" x="99" y="-84.95" font-family="Times,serif" font-size="14.00">If</text>
</g>
<!-- n1&#45;&gt;n3 -->
<g id="edge3" class="edge">
<title>n1&#45;&gt;n3</title>
<path fill="none" stroke="black" d="M99,-143.7C99,-136.24 99,-127.32 99,-118.97"/>
<polygon fill="black" stroke="black" points="102.5,-119.1 99,-109.1 95.5,-119.1 102.5,-119.1"/>
</g>
<!-- n7 -->
<g id="node8" class="node">
<title>n7</title>
<polygon fill="none" stroke="green" points="198,-108 144,-108 144,-72 198,-72 198,-108"/>
<text text-anchor="middle" x="171" y="-84.95" font-family="Times,serif" font-size="14.00">0</text>
</g>
<!-- n1&#45;&gt;n7 -->
<g id="edge7" class="edge">
<title>n1&#45;&gt;n7</title>
<path fill="none" stroke="black" d="M116.8,-143.7C125.45,-135.28 136.01,-125.02 145.5,-115.79"/>
<polygon fill="black" stroke="black" points="147.43,-118.83 152.16,-109.35 142.55,-113.81 147.43,-118.83"/>
</g>
<!-- n4 -->
<g id="node5" class="node">
<title>n4</title>
<polygon fill="none" stroke="black" points="54,-36 0,-36 0,0 54,0 54,-36"/>
<text text-anchor="middle" x="27" y="-12.95" font-family="Times,serif" font-size="14.00">a</text>
</g>
<!-- n3&#45;&gt;n4 -->
<g id="edge4" class="edge">
<title>n3&#45;&gt;n4</title>
<path fill="none" stroke="black" d="M81.2,-71.7C72.55,-63.28 61.99,-53.02 52.5,-43.79"/>
<polygon fill="black" stroke="black" points="55.45,-41.81 45.84,-37.35 50.57,-46.83 55.45,-41.81"/>
</g>
<!-- n5 -->
<g id="node6" class="node">
<title>n5</title>
<polygon fill="none" stroke="green" points="126,-36 72,-36 72,0 126,0 126,-36"/>
<text text-anchor="middle" x="99" y="-12.95" font-family="Times,serif" font-size="14.00">0</text>
</g>
<!-- n3&#45;&gt;n5 -->
<g id="edge5" class="edge">
<title>n3&#45;&gt;n5</title>
<path fill="none" stroke="black" d="M99,-71.7C99,-64.24 99,-55.32 99,-46.97"/>
<polygon fill="black" stroke="black" points="102.5,-47.1 99,-37.1 95.5,-47.1 102.5,-47.1"/>
</g>
<!-- n6 -->
<g id="node7" class="node">
<title>n6</title>
<polygon fill="none" stroke="green" points="198,-36 144,-36 144,0 198,0 198,-36"/>
<text text-anchor="middle" x="171" y="-12.95" font-family="Times,serif" font-size="14.00">1</text>
</g>
<!-- n3&#45;&gt;n6 -->
<g id="edge6" class="edge">
<title>n3&#45;&gt;n6</title>
<path fill="none" stroke="black" d="M116.8,-71.7C125.45,-63.28 136.01,-53.02 145.5,-43.79"/>
<polygon fill="black" stroke="black" points="147.43,-46.83 152.16,-37.35 142.55,-41.81 147.43,-46.83"/>
</g>
</g>
</svg>
