<?xml version="1.0" encoding="UTF-8" standalone="no"?>
<!DOCTYPE svg PUBLIC "-//W3C//DTD SVG 1.1//EN"
 "http://www.w3.org/Graphics/SVG/1.1/DTD/svg11.dtd">
<!-- Generated by graphviz version 8.1.0 (20230707.0739)
 -->
<!-- Title: G Pages: 1 -->
<svg width="278pt" height="260pt"
 viewBox="0.00 0.00 278.00 260.00" xmlns="http://www.w3.org/2000/svg" xmlns:xlink="http://www.w3.org/1999/xlink">
<g id="graph0" class="graph" transform="scale(1 1) rotate(0) translate(4 256)">
<title>G</title>
<polygon fill="white" stroke="none" points="-4,4 -4,-256 274,-256 274,4 -4,4"/>
<!-- n0 -->
<g id="node1" class="node">
<title>n0</title>
<polygon fill="none" stroke="black" points="162,-252 108,-252 108,-216 162,-216 162,-252"/>
<text text-anchor="middle" x="135" y="-228.95" font-family="Times,serif" font-size="14.00">a</text>
</g>
<!-- n1 -->
<g id="node2" class="node">
<title>n1</title>
<polygon fill="none" stroke="black" points="126,-180 72,-180 72,-144 126,-144 126,-180"/>
<text text-anchor="middle" x="99" y="-156.95" font-family="Times,serif" font-size="14.00">b</text>
</g>
<!-- n0&#45;&gt;n1 -->
<g id="edge1" class="edge">
<title>n0&#45;&gt;n1</title>
<path fill="none" stroke="black" d="M126.1,-215.7C122.09,-207.9 117.26,-198.51 112.8,-189.83"/>
<polygon fill="black" stroke="black" points="115.48,-188.4 107.8,-181.1 109.26,-191.6 115.48,-188.4"/>
</g>
<!-- n6 -->
<g id="node7" class="node">
<title>n6</title>
<polygon fill="none" stroke="red" points="198,-180 144,-180 144,-144 198,-144 198,-180"/>
<text text-anchor="middle" x="171" y="-156.95" font-family="Times,serif" font-size="14.00">d</text>
</g>
<!-- n0&#45;&gt;n6 -->
<g id="edge8" class="edge">
<title>n0&#45;&gt;n6</title>
<path fill="none" stroke="black" d="M143.9,-215.7C147.91,-207.9 152.74,-198.51 157.2,-189.83"/>
<polygon fill="black" stroke="black" points="160.74,-191.6 162.2,-181.1 154.52,-188.4 160.74,-191.6"/>
</g>
<!-- n5 -->
<g id="node3" class="node">
<title>n5</title>
<polygon fill="none" stroke="black" points="54,-108 0,-108 0,-72 54,-72 54,-108"/>
<text text-anchor="middle" x="27" y="-84.95" font-family="Times,serif" font-size="14.00">c</text>
</g>
<!-- n1&#45;&gt;n5 -->
<g id="edge2" class="edge">
<title>n1&#45;&gt;n5</title>
<path fill="none" stroke="black" d="M81.2,-143.7C72.55,-135.28 61.99,-125.02 52.5,-115.79"/>
<polygon fill="black" stroke="black" points="55.45,-113.81 45.84,-109.35 50.57,-118.83 55.45,-113.81"/>
</g>
<!-- n2 -->
<g id="node4" class="node">
<title>n2</title>
<polygon fill="none" stroke="red" points="126,-108 72,-108 72,-72 126,-72 126,-108"/>
<text text-anchor="middle" x="99" y="-84.95" font-family="Times,serif" font-size="14.00">d</text>
</g>
<!-- n1&#45;&gt;n2 -->
<g id="edge5" class="edge">
<title>n1&#45;&gt;n2</title>
<path fill="none" stroke="black" d="M99,-143.7C99,-136.24 99,-127.32 99,-118.97"/>
<polygon fill="black" stroke="black" points="102.5,-119.1 99,-109.1 95.5,-119.1 102.5,-119.1"/>
</g>
<!-- n3 -->
<g id="node5" class="node">
<title>n3</title>
<polygon fill="none" stroke="red" points="90,-36 36,-36 36,0 90,0 90,-36"/>
<text text-anchor="middle" x="63" y="-12.95" font-family="Times,serif" font-size="14.00">e</text>
</g>
<!-- n2&#45;&gt;n3 -->
<g id="edge3" class="edge">
<title>n2&#45;&gt;n3</title>
<path fill="none" stroke="red" d="M90.1,-71.7C86.09,-63.9 81.26,-54.51 76.8,-45.83"/>
<polygon fill="red" stroke="red" points="79.48,-44.4 71.8,-37.1 73.26,-47.6 79.48,-44.4"/>
</g>
<!-- n4 -->
<g id="node6" class="node">
<title>n4</title>
<polygon fill="none" stroke="red" points="162,-36 108,-36 108,0 162,0 162,-36"/>
<text text-anchor="middle" x="135" y="-12.95" font-family="Times,serif" font-size="14.00">f</text>
</g>
<!-- n2&#45;&gt;n4 -->
<g id="edge4" class="edge">
<title>n2&#45;&gt;n4</title>
<path fill="none" stroke="red" d="M107.9,-71.7C111.91,-63.9 116.74,-54.51 121.2,-45.83"/>
<polygon fill="red" stroke="red" points="124.74,-47.6 126.2,-37.1 118.52,-44.4 124.74,-47.6"/>
</g>
<!-- n7 -->
<g id="node8" class="node">
<title>n7</title>
<polygon fill="none" stroke="red" points="198,-108 144,-108 144,-72 198,-72 198,-108"/>
<text text-anchor="middle" x="171" y="-84.95" font-family="Times,serif" font-size="14.00">e</text>
</g>
<!-- n6&#45;&gt;n7 -->
<g id="edge6" class="edge">
<title>n6&#45;&gt;n7</title>
<path fill="none" stroke="red" d="M171,-143.7C171,-136.24 171,-127.32 171,-118.97"/>
<polygon fill="red" stroke="red" points="174.5,-119.1 171,-109.1 167.5,-119.1 174.5,-119.1"/>
</g>
<!-- n8 -->
<g id="node9" class="node">
<title>n8</title>
<polygon fill="none" stroke="red" points="270,-108 216,-108 216,-72 270,-72 270,-108"/>
<text text-anchor="middle" x="243" y="-84.95" font-family="Times,serif" font-size="14.00">f</text>
</g>
<!-- n6&#45;&gt;n8 -->
<g id="edge7" class="edge">
<title>n6&#45;&gt;n8</title>
<path fill="none" stroke="red" d="M188.8,-143.7C197.45,-135.28 208.01,-125.02 217.5,-115.79"/>
<polygon fill="red" stroke="red" points="219.43,-118.83 224.16,-109.35 214.55,-113.81 219.43,-118.83"/>
</g>
</g>
</svg>
