<?xml version="1.0" encoding="UTF-8" standalone="no"?>
<!DOCTYPE svg PUBLIC "-//W3C//DTD SVG 1.1//EN"
 "http://www.w3.org/Graphics/SVG/1.1/DTD/svg11.dtd">
<!-- Generated by graphviz version 8.1.0 (20230707.0739)
 -->
<!-- Title: G Pages: 1 -->
<svg width="314pt" height="332pt"
 viewBox="0.00 0.00 314.00 332.00" xmlns="http://www.w3.org/2000/svg" xmlns:xlink="http://www.w3.org/1999/xlink">
<g id="graph0" class="graph" transform="scale(1 1) rotate(0) translate(4 328)">
<title>G</title>
<polygon fill="white" stroke="none" points="-4,4 -4,-328 310,-328 310,4 -4,4"/>
<!-- n8 -->
<g id="node1" class="node">
<title>n8</title>
<polygon fill="none" stroke="green" points="234,-36 180,-36 180,0 234,0 234,-36"/>
<text text-anchor="middle" x="207" y="-12.95" font-family="Times,serif" font-size="14.00">g</text>
</g>
<!-- n9 -->
<g id="node2" class="node">
<title>n9</title>
<polygon fill="none" stroke="green" points="306,-36 252,-36 252,0 306,0 306,-36"/>
<text text-anchor="middle" x="279" y="-12.95" font-family="Times,serif" font-size="14.00">h</text>
</g>
<!-- n4 -->
<g id="node3" class="node">
<title>n4</title>
<polygon fill="none" stroke="purple" points="198,-180 144,-180 144,-144 198,-144 198,-180"/>
<text text-anchor="middle" x="171" y="-156.95" font-family="Times,serif" font-size="14.00">If</text>
</g>
<!-- n5 -->
<g id="node4" class="node">
<title>n5</title>
<polygon fill="none" stroke="purple" points="126,-108 72,-108 72,-72 126,-72 126,-108"/>
<text text-anchor="middle" x="99" y="-84.95" font-family="Times,serif" font-size="14.00">d</text>
</g>
<!-- n4&#45;&gt;n5 -->
<g id="edge1" class="edge">
<title>n4&#45;&gt;n5</title>
<path fill="none" stroke="purple" d="M153.2,-143.7C144.55,-135.28 133.99,-125.02 124.5,-115.79"/>
<polygon fill="purple" stroke="purple" points="127.45,-113.81 117.84,-109.35 122.57,-118.83 127.45,-113.81"/>
</g>
<!-- n6 -->
<g id="node5" class="node">
<title>n6</title>
<polygon fill="none" stroke="purple" points="198,-108 144,-108 144,-72 198,-72 198,-108"/>
<text text-anchor="middle" x="171" y="-84.95" font-family="Times,serif" font-size="14.00">If</text>
</g>
<!-- n4&#45;&gt;n6 -->
<g id="edge5" class="edge">
<title>n4&#45;&gt;n6</title>
<path fill="none" stroke="purple" d="M171,-143.7C171,-136.24 171,-127.32 171,-118.97"/>
<polygon fill="purple" stroke="purple" points="174.5,-119.1 171,-109.1 167.5,-119.1 174.5,-119.1"/>
</g>
<!-- n10 -->
<g id="node7" class="node">
<title>n10</title>
<polygon fill="none" stroke="purple" points="270,-108 216,-108 216,-72 270,-72 270,-108"/>
<text text-anchor="middle" x="243" y="-84.95" font-family="Times,serif" font-size="14.00">If</text>
</g>
<!-- n4&#45;&gt;n10 -->
<g id="edge9" class="edge">
<title>n4&#45;&gt;n10</title>
<path fill="none" stroke="purple" d="M188.8,-143.7C197.45,-135.28 208.01,-125.02 217.5,-115.79"/>
<polygon fill="purple" stroke="purple" points="219.43,-118.83 224.16,-109.35 214.55,-113.81 219.43,-118.83"/>
</g>
<!-- n6&#45;&gt;n8 -->
<g id="edge3" class="edge">
<title>n6&#45;&gt;n8</title>
<path fill="none" stroke="purple" d="M179.9,-71.7C183.91,-63.9 188.74,-54.51 193.2,-45.83"/>
<polygon fill="purple" stroke="purple" points="196.74,-47.6 198.2,-37.1 190.52,-44.4 196.74,-47.6"/>
</g>
<!-- n6&#45;&gt;n9 -->
<g id="edge4" class="edge">
<title>n6&#45;&gt;n9</title>
<path fill="none" stroke="purple" d="M197.97,-71.52C211.74,-62.6 228.66,-51.63 243.47,-42.03"/>
<polygon fill="purple" stroke="purple" points="244.88,-44.64 251.37,-36.26 241.07,-38.76 244.88,-44.64"/>
</g>
<!-- n7 -->
<g id="node6" class="node">
<title>n7</title>
<polygon fill="none" stroke="purple" points="90,-36 36,-36 36,0 90,0 90,-36"/>
<text text-anchor="middle" x="63" y="-12.95" font-family="Times,serif" font-size="14.00">e</text>
</g>
<!-- n6&#45;&gt;n7 -->
<g id="edge2" class="edge">
<title>n6&#45;&gt;n7</title>
<path fill="none" stroke="purple" d="M144.03,-71.52C130.26,-62.6 113.34,-51.63 98.53,-42.03"/>
<polygon fill="purple" stroke="purple" points="100.93,-38.76 90.63,-36.26 97.12,-44.64 100.93,-38.76"/>
</g>
<!-- n10&#45;&gt;n8 -->
<g id="edge7" class="edge">
<title>n10&#45;&gt;n8</title>
<path fill="none" stroke="purple" d="M234.1,-71.7C230.09,-63.9 225.26,-54.51 220.8,-45.83"/>
<polygon fill="purple" stroke="purple" points="223.48,-44.4 215.8,-37.1 217.26,-47.6 223.48,-44.4"/>
</g>
<!-- n10&#45;&gt;n9 -->
<g id="edge8" class="edge">
<title>n10&#45;&gt;n9</title>
<path fill="none" stroke="purple" d="M251.9,-71.7C255.91,-63.9 260.74,-54.51 265.2,-45.83"/>
<polygon fill="purple" stroke="purple" points="268.74,-47.6 270.2,-37.1 262.52,-44.4 268.74,-47.6"/>
</g>
<!-- n11 -->
<g id="node8" class="node">
<title>n11</title>
<polygon fill="none" stroke="purple" points="162,-36 108,-36 108,0 162,0 162,-36"/>
<text text-anchor="middle" x="135" y="-12.95" font-family="Times,serif" font-size="14.00">f</text>
</g>
<!-- n10&#45;&gt;n11 -->
<g id="edge6" class="edge">
<title>n10&#45;&gt;n11</title>
<path fill="none" stroke="purple" d="M216.03,-71.52C202.26,-62.6 185.34,-51.63 170.53,-42.03"/>
<polygon fill="purple" stroke="purple" points="172.93,-38.76 162.63,-36.26 169.12,-44.64 172.93,-38.76"/>
</g>
<!-- n14 -->
<g id="node9" class="node">
<title>n14</title>
<polygon fill="none" stroke="purple" points="270,-180 216,-180 216,-144 270,-144 270,-180"/>
<text text-anchor="middle" x="243" y="-156.95" font-family="Times,serif" font-size="14.00">i</text>
</g>
<!-- n0 -->
<g id="node10" class="node">
<title>n0</title>
<polygon fill="none" stroke="black" points="162,-324 108,-324 108,-288 162,-288 162,-324"/>
<text text-anchor="middle" x="135" y="-300.95" font-family="Times,serif" font-size="14.00">If</text>
</g>
<!-- n1 -->
<g id="node11" class="node">
<title>n1</title>
<polygon fill="none" stroke="black" points="90,-252 36,-252 36,-216 90,-216 90,-252"/>
<text text-anchor="middle" x="63" y="-228.95" font-family="Times,serif" font-size="14.00">a</text>
</g>
<!-- n0&#45;&gt;n1 -->
<g id="edge10" class="edge">
<title>n0&#45;&gt;n1</title>
<path fill="none" stroke="black" d="M117.2,-287.7C108.55,-279.28 97.99,-269.02 88.5,-259.79"/>
<polygon fill="black" stroke="black" points="91.45,-257.81 81.84,-253.35 86.57,-262.83 91.45,-257.81"/>
</g>
<!-- n2 -->
<g id="node12" class="node">
<title>n2</title>
<polygon fill="none" stroke="black" points="162,-252 108,-252 108,-216 162,-216 162,-252"/>
<text text-anchor="middle" x="135" y="-228.95" font-family="Times,serif" font-size="14.00">If</text>
</g>
<!-- n0&#45;&gt;n2 -->
<g id="edge14" class="edge">
<title>n0&#45;&gt;n2</title>
<path fill="none" stroke="black" d="M135,-287.7C135,-280.24 135,-271.32 135,-262.97"/>
<polygon fill="black" stroke="black" points="138.5,-263.1 135,-253.1 131.5,-263.1 138.5,-263.1"/>
</g>
<!-- n15 -->
<g id="node14" class="node">
<title>n15</title>
<polygon fill="none" stroke="black" points="234,-252 180,-252 180,-216 234,-216 234,-252"/>
<text text-anchor="middle" x="207" y="-228.95" font-family="Times,serif" font-size="14.00">If</text>
</g>
<!-- n0&#45;&gt;n15 -->
<g id="edge18" class="edge">
<title>n0&#45;&gt;n15</title>
<path fill="none" stroke="black" d="M152.8,-287.7C161.45,-279.28 172.01,-269.02 181.5,-259.79"/>
<polygon fill="black" stroke="black" points="183.43,-262.83 188.16,-253.35 178.55,-257.81 183.43,-262.83"/>
</g>
<!-- n2&#45;&gt;n4 -->
<g id="edge12" class="edge">
<title>n2&#45;&gt;n4</title>
<path fill="none" stroke="black" d="M143.9,-215.7C147.91,-207.9 152.74,-198.51 157.2,-189.83"/>
<polygon fill="black" stroke="black" points="160.74,-191.6 162.2,-181.1 154.52,-188.4 160.74,-191.6"/>
</g>
<!-- n2&#45;&gt;n14 -->
<g id="edge13" class="edge">
<title>n2&#45;&gt;n14</title>
<path fill="none" stroke="black" d="M161.97,-215.52C175.74,-206.6 192.66,-195.63 207.47,-186.03"/>
<polygon fill="black" stroke="black" points="208.88,-188.64 215.37,-180.26 205.07,-182.76 208.88,-188.64"/>
</g>
<!-- n3 -->
<g id="node13" class="node">
<title>n3</title>
<polygon fill="none" stroke="black" points="54,-180 0,-180 0,-144 54,-144 54,-180"/>
<text text-anchor="middle" x="27" y="-156.95" font-family="Times,serif" font-size="14.00">b</text>
</g>
<!-- n2&#45;&gt;n3 -->
<g id="edge11" class="edge">
<title>n2&#45;&gt;n3</title>
<path fill="none" stroke="black" d="M108.03,-215.52C94.26,-206.6 77.34,-195.63 62.53,-186.03"/>
<polygon fill="black" stroke="black" points="64.93,-182.76 54.63,-180.26 61.12,-188.64 64.93,-182.76"/>
</g>
<!-- n15&#45;&gt;n4 -->
<g id="edge16" class="edge">
<title>n15&#45;&gt;n4</title>
<path fill="none" stroke="black" d="M198.1,-215.7C194.09,-207.9 189.26,-198.51 184.8,-189.83"/>
<polygon fill="black" stroke="black" points="187.48,-188.4 179.8,-181.1 181.26,-191.6 187.48,-188.4"/>
</g>
<!-- n15&#45;&gt;n14 -->
<g id="edge17" class="edge">
<title>n15&#45;&gt;n14</title>
<path fill="none" stroke="black" d="M215.9,-215.7C219.91,-207.9 224.74,-198.51 229.2,-189.83"/>
<polygon fill="black" stroke="black" points="232.74,-191.6 234.2,-181.1 226.52,-188.4 232.74,-191.6"/>
</g>
<!-- n16 -->
<g id="node15" class="node">
<title>n16</title>
<polygon fill="none" stroke="black" points="126,-180 72,-180 72,-144 126,-144 126,-180"/>
<text text-anchor="middle" x="99" y="-156.95" font-family="Times,serif" font-size="14.00">c</text>
</g>
<!-- n15&#45;&gt;n16 -->
<g id="edge15" class="edge">
<title>n15&#45;&gt;n16</title>
<path fill="none" stroke="black" d="M180.03,-215.52C166.26,-206.6 149.34,-195.63 134.53,-186.03"/>
<polygon fill="black" stroke="black" points="136.93,-182.76 126.63,-180.26 133.12,-188.64 136.93,-182.76"/>
</g>
</g>
</svg>
