<?xml version="1.0" encoding="UTF-8" standalone="no"?>
<!DOCTYPE svg PUBLIC "-//W3C//DTD SVG 1.1//EN"
 "http://www.w3.org/Graphics/SVG/1.1/DTD/svg11.dtd">
<!-- Generated by graphviz version 8.1.0 (20230707.0739)
 -->
<!-- Title: G Pages: 1 -->
<svg width="422pt" height="260pt"
 viewBox="0.00 0.00 422.00 260.00" xmlns="http://www.w3.org/2000/svg" xmlns:xlink="http://www.w3.org/1999/xlink">
<g id="graph0" class="graph" transform="scale(1 1) rotate(0) translate(4 256)">
<title>G</title>
<polygon fill="white" stroke="none" points="-4,4 -4,-256 418,-256 418,4 -4,4"/>
<!-- n0 -->
<g id="node1" class="node">
<title>n0</title>
<polygon fill="none" stroke="black" points="288,-252 234,-252 234,-216 288,-216 288,-252"/>
<text text-anchor="middle" x="261" y="-228.95" font-family="Times,serif" font-size="14.00">If</text>
</g>
<!-- n1 -->
<g id="node2" class="node">
<title>n1</title>
<polygon fill="none" stroke="black" points="180,-180 126,-180 126,-144 180,-144 180,-180"/>
<text text-anchor="middle" x="153" y="-156.95" font-family="Times,serif" font-size="14.00">If</text>
</g>
<!-- n0&#45;&gt;n1 -->
<g id="edge4" class="edge">
<title>n0&#45;&gt;n1</title>
<path fill="none" stroke="black" d="M234.03,-215.52C220.26,-206.6 203.34,-195.63 188.53,-186.03"/>
<polygon fill="black" stroke="black" points="190.93,-182.76 180.63,-180.26 187.12,-188.64 190.93,-182.76"/>
</g>
<!-- n5 -->
<g id="node6" class="node">
<title>n5</title>
<polygon fill="none" stroke="black" points="288,-180 234,-180 234,-144 288,-144 288,-180"/>
<text text-anchor="middle" x="261" y="-156.95" font-family="Times,serif" font-size="14.00">If</text>
</g>
<!-- n0&#45;&gt;n5 -->
<g id="edge11" class="edge">
<title>n0&#45;&gt;n5</title>
<path fill="none" stroke="black" d="M261,-215.7C261,-208.24 261,-199.32 261,-190.97"/>
<polygon fill="black" stroke="black" points="264.5,-191.1 261,-181.1 257.5,-191.1 264.5,-191.1"/>
</g>
<!-- n12 -->
<g id="node13" class="node">
<title>n12</title>
<polygon fill="none" stroke="black" points="360,-180 306,-180 306,-144 360,-144 360,-180"/>
<text text-anchor="middle" x="333" y="-156.95" font-family="Times,serif" font-size="14.00">i</text>
</g>
<!-- n0&#45;&gt;n12 -->
<g id="edge12" class="edge">
<title>n0&#45;&gt;n12</title>
<path fill="none" stroke="black" d="M278.8,-215.7C287.45,-207.28 298.01,-197.02 307.5,-187.79"/>
<polygon fill="black" stroke="black" points="309.43,-190.83 314.16,-181.35 304.55,-185.81 309.43,-190.83"/>
</g>
<!-- n2 -->
<g id="node3" class="node">
<title>n2</title>
<polygon fill="none" stroke="black" points="54,-108 0,-108 0,-72 54,-72 54,-108"/>
<text text-anchor="middle" x="27" y="-84.95" font-family="Times,serif" font-size="14.00">a</text>
</g>
<!-- n1&#45;&gt;n2 -->
<g id="edge1" class="edge">
<title>n1&#45;&gt;n2</title>
<path fill="none" stroke="black" d="M125.66,-145.81C107.58,-135.77 83.66,-122.48 63.9,-111.5"/>
<polygon fill="black" stroke="black" points="65.73,-107.96 55.29,-106.16 62.33,-114.08 65.73,-107.96"/>
</g>
<!-- n3 -->
<g id="node4" class="node">
<title>n3</title>
<polygon fill="none" stroke="black" points="126,-108 72,-108 72,-72 126,-72 126,-108"/>
<text text-anchor="middle" x="99" y="-84.95" font-family="Times,serif" font-size="14.00">b</text>
</g>
<!-- n1&#45;&gt;n3 -->
<g id="edge2" class="edge">
<title>n1&#45;&gt;n3</title>
<path fill="none" stroke="black" d="M139.65,-143.7C133.37,-135.56 125.76,-125.69 118.83,-116.7"/>
<polygon fill="black" stroke="black" points="121.07,-114.88 112.19,-109.1 115.53,-119.16 121.07,-114.88"/>
</g>
<!-- n4 -->
<g id="node5" class="node">
<title>n4</title>
<polygon fill="none" stroke="black" points="198,-108 144,-108 144,-72 198,-72 198,-108"/>
<text text-anchor="middle" x="171" y="-84.95" font-family="Times,serif" font-size="14.00">c</text>
</g>
<!-- n1&#45;&gt;n4 -->
<g id="edge3" class="edge">
<title>n1&#45;&gt;n4</title>
<path fill="none" stroke="black" d="M157.45,-143.7C159.39,-136.15 161.71,-127.12 163.88,-118.68"/>
<polygon fill="black" stroke="black" points="167.5,-119.66 166.6,-109.1 160.72,-117.92 167.5,-119.66"/>
</g>
<!-- n6 -->
<g id="node7" class="node">
<title>n6</title>
<polygon fill="none" stroke="black" points="270,-108 216,-108 216,-72 270,-72 270,-108"/>
<text text-anchor="middle" x="243" y="-84.95" font-family="Times,serif" font-size="14.00">If</text>
</g>
<!-- n5&#45;&gt;n6 -->
<g id="edge8" class="edge">
<title>n5&#45;&gt;n6</title>
<path fill="none" stroke="black" d="M256.55,-143.7C254.61,-136.15 252.29,-127.12 250.12,-118.68"/>
<polygon fill="black" stroke="black" points="253.28,-117.92 247.4,-109.1 246.5,-119.66 253.28,-117.92"/>
</g>
<!-- n10 -->
<g id="node11" class="node">
<title>n10</title>
<polygon fill="none" stroke="black" points="342,-108 288,-108 288,-72 342,-72 342,-108"/>
<text text-anchor="middle" x="315" y="-84.95" font-family="Times,serif" font-size="14.00">g</text>
</g>
<!-- n5&#45;&gt;n10 -->
<g id="edge9" class="edge">
<title>n5&#45;&gt;n10</title>
<path fill="none" stroke="black" d="M274.35,-143.7C280.63,-135.56 288.24,-125.69 295.17,-116.7"/>
<polygon fill="black" stroke="black" points="298.47,-119.16 301.81,-109.1 292.93,-114.88 298.47,-119.16"/>
</g>
<!-- n11 -->
<g id="node12" class="node">
<title>n11</title>
<polygon fill="none" stroke="black" points="414,-108 360,-108 360,-72 414,-72 414,-108"/>
<text text-anchor="middle" x="387" y="-84.95" font-family="Times,serif" font-size="14.00">h</text>
</g>
<!-- n5&#45;&gt;n11 -->
<g id="edge10" class="edge">
<title>n5&#45;&gt;n11</title>
<path fill="none" stroke="black" d="M288.34,-145.81C306.42,-135.77 330.34,-122.48 350.1,-111.5"/>
<polygon fill="black" stroke="black" points="351.67,-114.08 358.71,-106.16 348.27,-107.96 351.67,-114.08"/>
</g>
<!-- n7 -->
<g id="node8" class="node">
<title>n7</title>
<polygon fill="none" stroke="black" points="198,-36 144,-36 144,0 198,0 198,-36"/>
<text text-anchor="middle" x="171" y="-12.95" font-family="Times,serif" font-size="14.00">d</text>
</g>
<!-- n6&#45;&gt;n7 -->
<g id="edge5" class="edge">
<title>n6&#45;&gt;n7</title>
<path fill="none" stroke="black" d="M225.2,-71.7C216.55,-63.28 205.99,-53.02 196.5,-43.79"/>
<polygon fill="black" stroke="black" points="199.45,-41.81 189.84,-37.35 194.57,-46.83 199.45,-41.81"/>
</g>
<!-- n8 -->
<g id="node9" class="node">
<title>n8</title>
<polygon fill="none" stroke="black" points="270,-36 216,-36 216,0 270,0 270,-36"/>
<text text-anchor="middle" x="243" y="-12.95" font-family="Times,serif" font-size="14.00">e</text>
</g>
<!-- n6&#45;&gt;n8 -->
<g id="edge6" class="edge">
<title>n6&#45;&gt;n8</title>
<path fill="none" stroke="black" d="M243,-71.7C243,-64.24 243,-55.32 243,-46.97"/>
<polygon fill="black" stroke="black" points="246.5,-47.1 243,-37.1 239.5,-47.1 246.5,-47.1"/>
</g>
<!-- n9 -->
<g id="node10" class="node">
<title>n9</title>
<polygon fill="none" stroke="black" points="342,-36 288,-36 288,0 342,0 342,-36"/>
<text text-anchor="middle" x="315" y="-12.95" font-family="Times,serif" font-size="14.00">f</text>
</g>
<!-- n6&#45;&gt;n9 -->
<g id="edge7" class="edge">
<title>n6&#45;&gt;n9</title>
<path fill="none" stroke="black" d="M260.8,-71.7C269.45,-63.28 280.01,-53.02 289.5,-43.79"/>
<polygon fill="black" stroke="black" points="291.43,-46.83 296.16,-37.35 286.55,-41.81 291.43,-46.83"/>
</g>
</g>
</svg>
