<?xml version="1.0" encoding="UTF-8" standalone="no"?>
<!DOCTYPE svg PUBLIC "-//W3C//DTD SVG 1.1//EN"
 "http://www.w3.org/Graphics/SVG/1.1/DTD/svg11.dtd">
<!-- Generated by graphviz version 8.1.0 (20230707.0739)
 -->
<!-- Title: G Pages: 1 -->
<svg width="170pt" height="260pt"
 viewBox="0.00 0.00 170.00 260.00" xmlns="http://www.w3.org/2000/svg" xmlns:xlink="http://www.w3.org/1999/xlink">
<g id="graph0" class="graph" transform="scale(1 1) rotate(0) translate(4 256)">
<title>G</title>
<polygon fill="white" stroke="none" points="-4,4 -4,-256 166,-256 166,4 -4,4"/>
<!-- n0 -->
<g id="node1" class="node">
<title>n0</title>
<polygon fill="none" stroke="black" points="98,-252 44,-252 44,-216 98,-216 98,-252"/>
<text text-anchor="middle" x="71" y="-228.95" font-family="Times,serif" font-size="14.00">a</text>
</g>
<!-- n1 -->
<g id="node2" class="node">
<title>n1</title>
<polygon fill="none" stroke="black" points="71,-180 17,-180 17,-144 71,-144 71,-180"/>
<text text-anchor="middle" x="44" y="-156.95" font-family="Times,serif" font-size="14.00">b</text>
</g>
<!-- n0&#45;&gt;n1 -->
<g id="edge1" class="edge">
<title>n0&#45;&gt;n1</title>
<path fill="none" stroke="black" d="M64.33,-215.7C61.35,-207.98 57.77,-198.71 54.46,-190.11"/>
<polygon fill="black" stroke="black" points="57.46,-189.17 50.6,-181.1 50.93,-191.69 57.46,-189.17"/>
</g>
<!-- n2 -->
<g id="node4" class="node">
<title>n2</title>
<polygon fill="none" stroke="red" points="126,-108 72,-108 72,-72 126,-72 126,-108"/>
<text text-anchor="middle" x="99" y="-84.95" font-family="Times,serif" font-size="14.00">d</text>
</g>
<!-- n0&#45;&gt;n2 -->
<g id="edge6" class="edge">
<title>n0&#45;&gt;n2</title>
<path fill="none" stroke="black" d="M74.43,-215.59C79.2,-191.4 87.89,-147.36 93.55,-118.65"/>
<polygon fill="black" stroke="black" points="97.13,-119.6 95.63,-109.11 90.26,-118.24 97.13,-119.6"/>
</g>
<!-- n5 -->
<g id="node3" class="node">
<title>n5</title>
<polygon fill="none" stroke="black" points="54,-108 0,-108 0,-72 54,-72 54,-108"/>
<text text-anchor="middle" x="27" y="-84.95" font-family="Times,serif" font-size="14.00">c</text>
</g>
<!-- n1&#45;&gt;n5 -->
<g id="edge5" class="edge">
<title>n1&#45;&gt;n5</title>
<path fill="none" stroke="black" d="M39.8,-143.7C37.97,-136.15 35.77,-127.12 33.72,-118.68"/>
<polygon fill="black" stroke="black" points="36.92,-118 31.15,-109.1 30.11,-119.65 36.92,-118"/>
</g>
<!-- n1&#45;&gt;n2 -->
<g id="edge4" class="edge">
<title>n1&#45;&gt;n2</title>
<path fill="none" stroke="black" d="M57.6,-143.7C63.99,-135.56 71.74,-125.69 78.81,-116.7"/>
<polygon fill="black" stroke="black" points="82.13,-119.13 85.56,-109.1 76.63,-114.81 82.13,-119.13"/>
</g>
<!-- n3 -->
<g id="node5" class="node">
<title>n3</title>
<polygon fill="none" stroke="red" points="90,-36 36,-36 36,0 90,0 90,-36"/>
<text text-anchor="middle" x="63" y="-12.95" font-family="Times,serif" font-size="14.00">e</text>
</g>
<!-- n2&#45;&gt;n3 -->
<g id="edge2" class="edge">
<title>n2&#45;&gt;n3</title>
<path fill="none" stroke="red" d="M90.1,-71.7C86.09,-63.9 81.26,-54.51 76.8,-45.83"/>
<polygon fill="red" stroke="red" points="79.48,-44.4 71.8,-37.1 73.26,-47.6 79.48,-44.4"/>
</g>
<!-- n4 -->
<g id="node6" class="node">
<title>n4</title>
<polygon fill="none" stroke="red" points="162,-36 108,-36 108,0 162,0 162,-36"/>
<text text-anchor="middle" x="135" y="-12.95" font-family="Times,serif" font-size="14.00">f</text>
</g>
<!-- n2&#45;&gt;n4 -->
<g id="edge3" class="edge">
<title>n2&#45;&gt;n4</title>
<path fill="none" stroke="red" d="M107.9,-71.7C111.91,-63.9 116.74,-54.51 121.2,-45.83"/>
<polygon fill="red" stroke="red" points="124.74,-47.6 126.2,-37.1 118.52,-44.4 124.74,-47.6"/>
</g>
</g>
</svg>
