<?xml version="1.0" encoding="UTF-8" standalone="no"?>
<!DOCTYPE svg PUBLIC "-//W3C//DTD SVG 1.1//EN"
 "http://www.w3.org/Graphics/SVG/1.1/DTD/svg11.dtd">
<!-- Generated by graphviz version 8.1.0 (20230707.0739)
 -->
<!-- Title: G Pages: 1 -->
<svg width="854pt" height="332pt"
 viewBox="0.00 0.00 854.00 332.00" xmlns="http://www.w3.org/2000/svg" xmlns:xlink="http://www.w3.org/1999/xlink">
<g id="graph0" class="graph" transform="scale(1 1) rotate(0) translate(4 328)">
<title>G</title>
<polygon fill="white" stroke="none" points="-4,4 -4,-328 850,-328 850,4 -4,4"/>
<!-- n0 -->
<g id="node1" class="node">
<title>n0</title>
<polygon fill="none" stroke="black" points="360,-324 306,-324 306,-288 360,-288 360,-324"/>
<text text-anchor="middle" x="333" y="-300.95" font-family="Times,serif" font-size="14.00">If</text>
</g>
<!-- n1 -->
<g id="node2" class="node">
<title>n1</title>
<polygon fill="none" stroke="black" points="288,-252 234,-252 234,-216 288,-216 288,-252"/>
<text text-anchor="middle" x="261" y="-228.95" font-family="Times,serif" font-size="14.00">a</text>
</g>
<!-- n0&#45;&gt;n1 -->
<g id="edge1" class="edge">
<title>n0&#45;&gt;n1</title>
<path fill="none" stroke="black" d="M315.2,-287.7C306.55,-279.28 295.99,-269.02 286.5,-259.79"/>
<polygon fill="black" stroke="black" points="289.45,-257.81 279.84,-253.35 284.57,-262.83 289.45,-257.81"/>
</g>
<!-- n2 -->
<g id="node3" class="node">
<title>n2</title>
<polygon fill="none" stroke="black" points="360,-252 306,-252 306,-216 360,-216 360,-252"/>
<text text-anchor="middle" x="333" y="-228.95" font-family="Times,serif" font-size="14.00">If</text>
</g>
<!-- n0&#45;&gt;n2 -->
<g id="edge14" class="edge">
<title>n0&#45;&gt;n2</title>
<path fill="none" stroke="black" d="M333,-287.7C333,-280.24 333,-271.32 333,-262.97"/>
<polygon fill="black" stroke="black" points="336.5,-263.1 333,-253.1 329.5,-263.1 336.5,-263.1"/>
</g>
<!-- n15 -->
<g id="node16" class="node">
<title>n15</title>
<polygon fill="none" stroke="black" points="468,-252 414,-252 414,-216 468,-216 468,-252"/>
<text text-anchor="middle" x="441" y="-228.95" font-family="Times,serif" font-size="14.00">If</text>
</g>
<!-- n0&#45;&gt;n15 -->
<g id="edge27" class="edge">
<title>n0&#45;&gt;n15</title>
<path fill="none" stroke="black" d="M359.97,-287.52C373.74,-278.6 390.66,-267.63 405.47,-258.03"/>
<polygon fill="black" stroke="black" points="406.88,-260.64 413.37,-252.26 403.07,-254.76 406.88,-260.64"/>
</g>
<!-- n3 -->
<g id="node4" class="node">
<title>n3</title>
<polygon fill="none" stroke="black" points="225,-180 171,-180 171,-144 225,-144 225,-180"/>
<text text-anchor="middle" x="198" y="-156.95" font-family="Times,serif" font-size="14.00">b</text>
</g>
<!-- n2&#45;&gt;n3 -->
<g id="edge2" class="edge">
<title>n2&#45;&gt;n3</title>
<path fill="none" stroke="black" d="M305.68,-218.83C285.28,-208.26 257.17,-193.68 234.79,-182.08"/>
<polygon fill="black" stroke="black" points="236.77,-178.64 226.28,-177.14 233.55,-184.85 236.77,-178.64"/>
</g>
<!-- n4 -->
<g id="node5" class="node">
<title>n4</title>
<polygon fill="none" stroke="purple" points="297,-180 243,-180 243,-144 297,-144 297,-180"/>
<text text-anchor="middle" x="270" y="-156.95" font-family="Times,serif" font-size="14.00">If</text>
</g>
<!-- n2&#45;&gt;n4 -->
<g id="edge12" class="edge">
<title>n2&#45;&gt;n4</title>
<path fill="none" stroke="purple" d="M317.43,-215.7C309.95,-207.39 300.85,-197.28 292.63,-188.14"/>
<polygon fill="purple" stroke="purple" points="295.69,-186.2 286.39,-181.1 290.48,-190.88 295.69,-186.2"/>
</g>
<!-- n14 -->
<g id="node15" class="node">
<title>n14</title>
<polygon fill="none" stroke="purple" points="369,-180 315,-180 315,-144 369,-144 369,-180"/>
<text text-anchor="middle" x="342" y="-156.95" font-family="Times,serif" font-size="14.00">i</text>
</g>
<!-- n2&#45;&gt;n14 -->
<g id="edge13" class="edge">
<title>n2&#45;&gt;n14</title>
<path fill="none" stroke="black" d="M335.22,-215.7C336.18,-208.24 337.33,-199.32 338.4,-190.97"/>
<polygon fill="black" stroke="black" points="342,-191.47 339.8,-181.1 335.05,-190.58 342,-191.47"/>
</g>
<!-- n5 -->
<g id="node6" class="node">
<title>n5</title>
<polygon fill="none" stroke="purple" points="126,-108 72,-108 72,-72 126,-72 126,-108"/>
<text text-anchor="middle" x="99" y="-84.95" font-family="Times,serif" font-size="14.00">d</text>
</g>
<!-- n4&#45;&gt;n5 -->
<g id="edge3" class="edge">
<title>n4&#45;&gt;n5</title>
<path fill="none" stroke="purple" d="M242.6,-147.74C239.71,-146.44 236.81,-145.17 234,-144 193.74,-127.22 180.08,-126.1 136.5,-108.43"/>
<polygon fill="purple" stroke="purple" points="137.98,-104.84 127.4,-104.26 135.31,-111.31 137.98,-104.84"/>
</g>
<!-- n6 -->
<g id="node7" class="node">
<title>n6</title>
<polygon fill="none" stroke="purple" points="198,-108 144,-108 144,-72 198,-72 198,-108"/>
<text text-anchor="middle" x="171" y="-84.95" font-family="Times,serif" font-size="14.00">If</text>
</g>
<!-- n4&#45;&gt;n6 -->
<g id="edge7" class="edge">
<title>n4&#45;&gt;n6</title>
<path fill="none" stroke="purple" d="M245.27,-143.52C232.9,-134.76 217.73,-124.04 204.34,-114.58"/>
<polygon fill="purple" stroke="purple" points="206.6,-111.18 196.41,-108.26 202.56,-116.89 206.6,-111.18"/>
</g>
<!-- n10 -->
<g id="node11" class="node">
<title>n10</title>
<polygon fill="none" stroke="purple" points="319,-108 265,-108 265,-72 319,-72 319,-108"/>
<text text-anchor="middle" x="292" y="-84.95" font-family="Times,serif" font-size="14.00">If</text>
</g>
<!-- n4&#45;&gt;n10 -->
<g id="edge11" class="edge">
<title>n4&#45;&gt;n10</title>
<path fill="none" stroke="purple" d="M275.44,-143.7C277.84,-136.07 280.71,-126.92 283.39,-118.4"/>
<polygon fill="purple" stroke="purple" points="286.97,-119.69 286.62,-109.1 280.29,-117.59 286.97,-119.69"/>
</g>
<!-- n7 -->
<g id="node8" class="node">
<title>n7</title>
<polygon fill="none" stroke="purple" points="54,-36 0,-36 0,0 54,0 54,-36"/>
<text text-anchor="middle" x="27" y="-12.95" font-family="Times,serif" font-size="14.00">e</text>
</g>
<!-- n6&#45;&gt;n7 -->
<g id="edge4" class="edge">
<title>n6&#45;&gt;n7</title>
<path fill="none" stroke="purple" d="M143.58,-75.67C121.06,-64.72 88.94,-49.11 64.12,-37.05"/>
<polygon fill="purple" stroke="purple" points="65.85,-33.51 55.32,-32.28 62.79,-39.8 65.85,-33.51"/>
</g>
<!-- n8 -->
<g id="node9" class="node">
<title>n8</title>
<polygon fill="none" stroke="green" points="126,-36 72,-36 72,0 126,0 126,-36"/>
<text text-anchor="middle" x="99" y="-12.95" font-family="Times,serif" font-size="14.00">g</text>
</g>
<!-- n6&#45;&gt;n8 -->
<g id="edge5" class="edge">
<title>n6&#45;&gt;n8</title>
<path fill="none" stroke="purple" d="M153.2,-71.7C144.55,-63.28 133.99,-53.02 124.5,-43.79"/>
<polygon fill="purple" stroke="purple" points="127.45,-41.81 117.84,-37.35 122.57,-46.83 127.45,-41.81"/>
</g>
<!-- n9 -->
<g id="node10" class="node">
<title>n9</title>
<polygon fill="none" stroke="green" points="198,-36 144,-36 144,0 198,0 198,-36"/>
<text text-anchor="middle" x="171" y="-12.95" font-family="Times,serif" font-size="14.00">h</text>
</g>
<!-- n6&#45;&gt;n9 -->
<g id="edge6" class="edge">
<title>n6&#45;&gt;n9</title>
<path fill="none" stroke="purple" d="M171,-71.7C171,-64.24 171,-55.32 171,-46.97"/>
<polygon fill="purple" stroke="purple" points="174.5,-47.1 171,-37.1 167.5,-47.1 174.5,-47.1"/>
</g>
<!-- n11 -->
<g id="node12" class="node">
<title>n11</title>
<polygon fill="none" stroke="purple" points="270,-36 216,-36 216,0 270,0 270,-36"/>
<text text-anchor="middle" x="243" y="-12.95" font-family="Times,serif" font-size="14.00">f</text>
</g>
<!-- n10&#45;&gt;n11 -->
<g id="edge8" class="edge">
<title>n10&#45;&gt;n11</title>
<path fill="none" stroke="purple" d="M279.89,-71.7C274.25,-63.64 267.43,-53.89 261.19,-44.98"/>
<polygon fill="purple" stroke="purple" points="263.58,-43.29 254.97,-37.1 257.84,-47.3 263.58,-43.29"/>
</g>
<!-- n12 -->
<g id="node13" class="node">
<title>n12</title>
<polygon fill="none" stroke="green" points="342,-36 288,-36 288,0 342,0 342,-36"/>
<text text-anchor="middle" x="315" y="-12.95" font-family="Times,serif" font-size="14.00">g</text>
</g>
<!-- n10&#45;&gt;n12 -->
<g id="edge9" class="edge">
<title>n10&#45;&gt;n12</title>
<path fill="none" stroke="purple" d="M297.69,-71.7C300.19,-64.07 303.2,-54.92 306,-46.4"/>
<polygon fill="purple" stroke="purple" points="309.58,-47.7 309.38,-37.1 302.93,-45.51 309.58,-47.7"/>
</g>
<!-- n13 -->
<g id="node14" class="node">
<title>n13</title>
<polygon fill="none" stroke="green" points="414,-36 360,-36 360,0 414,0 414,-36"/>
<text text-anchor="middle" x="387" y="-12.95" font-family="Times,serif" font-size="14.00">h</text>
</g>
<!-- n10&#45;&gt;n13 -->
<g id="edge10" class="edge">
<title>n10&#45;&gt;n13</title>
<path fill="none" stroke="purple" d="M315.48,-71.7C327.36,-62.95 341.95,-52.19 354.85,-42.69"/>
<polygon fill="purple" stroke="purple" points="356.48,-45.1 362.46,-36.35 352.33,-39.46 356.48,-45.1"/>
</g>
<!-- n16 -->
<g id="node17" class="node">
<title>n16</title>
<polygon fill="none" stroke="black" points="450,-180 396,-180 396,-144 450,-144 450,-180"/>
<text text-anchor="middle" x="423" y="-156.95" font-family="Times,serif" font-size="14.00">c</text>
</g>
<!-- n15&#45;&gt;n16 -->
<g id="edge15" class="edge">
<title>n15&#45;&gt;n16</title>
<path fill="none" stroke="black" d="M436.55,-215.7C434.61,-208.15 432.29,-199.12 430.12,-190.68"/>
<polygon fill="black" stroke="black" points="433.28,-189.92 427.4,-181.1 426.5,-191.66 433.28,-189.92"/>
</g>
<!-- n17 -->
<g id="node18" class="node">
<title>n17</title>
<polygon fill="none" stroke="purple" points="522,-180 468,-180 468,-144 522,-144 522,-180"/>
<text text-anchor="middle" x="495" y="-156.95" font-family="Times,serif" font-size="14.00">If</text>
</g>
<!-- n15&#45;&gt;n17 -->
<g id="edge25" class="edge">
<title>n15&#45;&gt;n17</title>
<path fill="none" stroke="purple" d="M454.35,-215.7C460.63,-207.56 468.24,-197.69 475.17,-188.7"/>
<polygon fill="purple" stroke="purple" points="478.47,-191.16 481.81,-181.1 472.93,-186.88 478.47,-191.16"/>
</g>
<!-- n27 -->
<g id="node28" class="node">
<title>n27</title>
<polygon fill="none" stroke="purple" points="594,-180 540,-180 540,-144 594,-144 594,-180"/>
<text text-anchor="middle" x="567" y="-156.95" font-family="Times,serif" font-size="14.00">i</text>
</g>
<!-- n15&#45;&gt;n27 -->
<g id="edge26" class="edge">
<title>n15&#45;&gt;n27</title>
<path fill="none" stroke="black" d="M468.34,-217.81C486.42,-207.77 510.34,-194.48 530.1,-183.5"/>
<polygon fill="black" stroke="black" points="531.67,-186.08 538.71,-178.16 528.27,-179.96 531.67,-186.08"/>
</g>
<!-- n18 -->
<g id="node19" class="node">
<title>n18</title>
<polygon fill="none" stroke="purple" points="486,-108 432,-108 432,-72 486,-72 486,-108"/>
<text text-anchor="middle" x="459" y="-84.95" font-family="Times,serif" font-size="14.00">d</text>
</g>
<!-- n17&#45;&gt;n18 -->
<g id="edge16" class="edge">
<title>n17&#45;&gt;n18</title>
<path fill="none" stroke="purple" d="M486.1,-143.7C482.09,-135.9 477.26,-126.51 472.8,-117.83"/>
<polygon fill="purple" stroke="purple" points="475.48,-116.4 467.8,-109.1 469.26,-119.6 475.48,-116.4"/>
</g>
<!-- n19 -->
<g id="node20" class="node">
<title>n19</title>
<polygon fill="none" stroke="purple" points="558,-108 504,-108 504,-72 558,-72 558,-108"/>
<text text-anchor="middle" x="531" y="-84.95" font-family="Times,serif" font-size="14.00">If</text>
</g>
<!-- n17&#45;&gt;n19 -->
<g id="edge20" class="edge">
<title>n17&#45;&gt;n19</title>
<path fill="none" stroke="purple" d="M503.9,-143.7C507.91,-135.9 512.74,-126.51 517.2,-117.83"/>
<polygon fill="purple" stroke="purple" points="520.74,-119.6 522.2,-109.1 514.52,-116.4 520.74,-119.6"/>
</g>
<!-- n23 -->
<g id="node24" class="node">
<title>n23</title>
<polygon fill="none" stroke="purple" points="738,-108 684,-108 684,-72 738,-72 738,-108"/>
<text text-anchor="middle" x="711" y="-84.95" font-family="Times,serif" font-size="14.00">If</text>
</g>
<!-- n17&#45;&gt;n23 -->
<g id="edge24" class="edge">
<title>n17&#45;&gt;n23</title>
<path fill="none" stroke="purple" d="M522.33,-147.56C525.23,-146.29 528.16,-145.08 531,-144 579.21,-125.64 636.66,-109.72 673.47,-100.24"/>
<polygon fill="purple" stroke="purple" points="673.91,-103.48 682.73,-97.62 672.18,-96.7 673.91,-103.48"/>
</g>
<!-- n20 -->
<g id="node21" class="node">
<title>n20</title>
<polygon fill="none" stroke="purple" points="486,-36 432,-36 432,0 486,0 486,-36"/>
<text text-anchor="middle" x="459" y="-12.95" font-family="Times,serif" font-size="14.00">e</text>
</g>
<!-- n19&#45;&gt;n20 -->
<g id="edge17" class="edge">
<title>n19&#45;&gt;n20</title>
<path fill="none" stroke="purple" d="M513.2,-71.7C504.55,-63.28 493.99,-53.02 484.5,-43.79"/>
<polygon fill="purple" stroke="purple" points="487.45,-41.81 477.84,-37.35 482.57,-46.83 487.45,-41.81"/>
</g>
<!-- n21 -->
<g id="node22" class="node">
<title>n21</title>
<polygon fill="none" stroke="green" points="558,-36 504,-36 504,0 558,0 558,-36"/>
<text text-anchor="middle" x="531" y="-12.95" font-family="Times,serif" font-size="14.00">g</text>
</g>
<!-- n19&#45;&gt;n21 -->
<g id="edge18" class="edge">
<title>n19&#45;&gt;n21</title>
<path fill="none" stroke="purple" d="M531,-71.7C531,-64.24 531,-55.32 531,-46.97"/>
<polygon fill="purple" stroke="purple" points="534.5,-47.1 531,-37.1 527.5,-47.1 534.5,-47.1"/>
</g>
<!-- n22 -->
<g id="node23" class="node">
<title>n22</title>
<polygon fill="none" stroke="green" points="630,-36 576,-36 576,0 630,0 630,-36"/>
<text text-anchor="middle" x="603" y="-12.95" font-family="Times,serif" font-size="14.00">h</text>
</g>
<!-- n19&#45;&gt;n22 -->
<g id="edge19" class="edge">
<title>n19&#45;&gt;n22</title>
<path fill="none" stroke="purple" d="M548.8,-71.7C557.45,-63.28 568.01,-53.02 577.5,-43.79"/>
<polygon fill="purple" stroke="purple" points="579.43,-46.83 584.16,-37.35 574.55,-41.81 579.43,-46.83"/>
</g>
<!-- n24 -->
<g id="node25" class="node">
<title>n24</title>
<polygon fill="none" stroke="purple" points="702,-36 648,-36 648,0 702,0 702,-36"/>
<text text-anchor="middle" x="675" y="-12.95" font-family="Times,serif" font-size="14.00">f</text>
</g>
<!-- n23&#45;&gt;n24 -->
<g id="edge21" class="edge">
<title>n23&#45;&gt;n24</title>
<path fill="none" stroke="purple" d="M702.1,-71.7C698.09,-63.9 693.26,-54.51 688.8,-45.83"/>
<polygon fill="purple" stroke="purple" points="691.48,-44.4 683.8,-37.1 685.26,-47.6 691.48,-44.4"/>
</g>
<!-- n25 -->
<g id="node26" class="node">
<title>n25</title>
<polygon fill="none" stroke="green" points="774,-36 720,-36 720,0 774,0 774,-36"/>
<text text-anchor="middle" x="747" y="-12.95" font-family="Times,serif" font-size="14.00">g</text>
</g>
<!-- n23&#45;&gt;n25 -->
<g id="edge22" class="edge">
<title>n23&#45;&gt;n25</title>
<path fill="none" stroke="purple" d="M719.9,-71.7C723.91,-63.9 728.74,-54.51 733.2,-45.83"/>
<polygon fill="purple" stroke="purple" points="736.74,-47.6 738.2,-37.1 730.52,-44.4 736.74,-47.6"/>
</g>
<!-- n26 -->
<g id="node27" class="node">
<title>n26</title>
<polygon fill="none" stroke="green" points="846,-36 792,-36 792,0 846,0 846,-36"/>
<text text-anchor="middle" x="819" y="-12.95" font-family="Times,serif" font-size="14.00">h</text>
</g>
<!-- n23&#45;&gt;n26 -->
<g id="edge23" class="edge">
<title>n23&#45;&gt;n26</title>
<path fill="none" stroke="purple" d="M737.97,-71.52C751.74,-62.6 768.66,-51.63 783.47,-42.03"/>
<polygon fill="purple" stroke="purple" points="784.88,-44.64 791.37,-36.26 781.07,-38.76 784.88,-44.64"/>
</g>
</g>
</svg>
